HIERARCHY
ROOT Pelvis
{
	OFFSET 0.000000 0.000000 0.000000
	CHANNELS 6 Xposition Yposition Zposition Xrotation Yrotation Zrotation
	JOINT LeftUpLeg_virtual
	{
		OFFSET 0.000000 0.000000 0.000000
		CHANNELS 3 Xrotation Yrotation Zrotation
		JOINT LeftUpLeg
		{
			OFFSET 18.735201 -5.666702 -4.541200
			CHANNELS 3 Xrotation Yrotation Zrotation
			JOINT LeftLeg
			{
				OFFSET -0.021200 -31.938179 0.493100
				CHANNELS 3 Xrotation Yrotation Zrotation
				JOINT LeftFoot
				{
					OFFSET 0.021200 -31.938179 -4.336299
					CHANNELS 3 Xrotation Yrotation Zrotation
					JOINT LeftToeBase
					{
						OFFSET 0.943001 -26.722000 15.023500
						CHANNELS 3 Xrotation Yrotation Zrotation
						End Site
						{
							OFFSET 0 0 0
						}
					}
				}
			}
		}
	}
	JOINT RightUpLeg_virtual
	{
		OFFSET 0.000000 0.000000 0.000000
		CHANNELS 3 Xrotation Yrotation Zrotation
		JOINT RightUpLeg
		{
			OFFSET -18.735201 -5.666702 -4.541200
			CHANNELS 3 Xrotation Yrotation Zrotation
			JOINT RightLeg
			{
				OFFSET 0.018946 -31.938133 0.493100
				CHANNELS 3 Xrotation Yrotation Zrotation
				JOINT RightFoot
				{
					OFFSET -0.018946 -31.938126 -4.336299
					CHANNELS 3 Xrotation Yrotation Zrotation
					JOINT RightToeBase
					{
						OFFSET -0.943001 -26.722004 15.023500
						CHANNELS 3 Xrotation Yrotation Zrotation
						End Site
						{
							OFFSET 0 0 0
						}
					}
				}
			}
		}
	}
	JOINT Hips_virtual
	{
		OFFSET 0.000000 0.000000 0.000000
		CHANNELS 3 Xrotation Yrotation Zrotation
		JOINT Hips
		{
			OFFSET -0.000000 -0.000000 -0.000000
			CHANNELS 3 Xrotation Yrotation Zrotation
			JOINT Spine
			{
				OFFSET 0.000000 10.199997 -0.299500
				CHANNELS 3 Xrotation Yrotation Zrotation
				JOINT Spine1
				{
					OFFSET 0.000000 11.900002 -1.516600
					CHANNELS 3 Xrotation Yrotation Zrotation
					JOINT Spine2
					{
						OFFSET 0.000000 13.600006 -2.842500
						CHANNELS 3 Xrotation Yrotation Zrotation
						JOINT Neck_virtual
						{
							OFFSET 0.000000 0.000000 0.000000
							CHANNELS 3 Xrotation Yrotation Zrotation
							JOINT Neck
							{
								OFFSET 0.000000 9.624100 -2.890100
								CHANNELS 3 Xrotation Yrotation Zrotation
								JOINT Head
								{
									OFFSET 0.000000 14.068802 -1.351900
									CHANNELS 3 Xrotation Yrotation Zrotation
									End Site
									{
										OFFSET 0 0 0
									}
								}
							}
						}
						JOINT LeftShoulder_virtual
						{
							OFFSET 0.000000 0.000000 0.000000
							CHANNELS 3 Xrotation Yrotation Zrotation
							JOINT LeftShoulder
							{
								OFFSET 15.263000 10.923401 -0.547700
								CHANNELS 3 Xrotation Yrotation Zrotation
								JOINT LeftArm
								{
									OFFSET 25.438599 -2.830597 -13.032500
									CHANNELS 3 Xrotation Yrotation Zrotation
									JOINT LeftForeArm
									{
										OFFSET 29.960503 0.000000 0.000000
										CHANNELS 3 Xrotation Yrotation Zrotation
										JOINT LeftHand
										{
											OFFSET 27.849251 0.000000 0.000000
											CHANNELS 3 Xrotation Yrotation Zrotation
											End Site
											{
												OFFSET 0 0 0
											}
										}
									}
								}
							}
						}
						JOINT RightShoulder_virtual
						{
							OFFSET 0.000000 0.000000 0.000000
							CHANNELS 3 Xrotation Yrotation Zrotation
							JOINT RightShoulder
							{
								OFFSET -15.263000 10.923401 -0.547700
								CHANNELS 3 Xrotation Yrotation Zrotation
								JOINT RightArm
								{
									OFFSET -25.438599 -2.830597 -13.032500
									CHANNELS 3 Xrotation Yrotation Zrotation
									JOINT RightForeArm
									{
										OFFSET -29.960503 0.000000 0.000000
										CHANNELS 3 Xrotation Yrotation Zrotation
										JOINT RightHand
										{
											OFFSET -27.849251 0.000000 0.000000
											CHANNELS 3 Xrotation Yrotation Zrotation
											End Site
											{
												OFFSET 0 0 0
											}
										}
									}
								}
							}
						}
					}
				}
			}
		}
	}
}
MOTION
Frames: 11
Frame Time: 0.03333333
-3.938264 77.968674 4.269630 0.000000 0.000000 0.000000 -7.331214 -17.196127 2.343406 -55.972803 2.529147 21.869994 48.270320 -9.525804 -1.458682 -4.628382 -9.017085 -14.390092 0.000000 0.000000 0.000000 8.199598 -34.054183 -2.582187 -24.152430 -13.437000 -23.687849 45.618147 6.490783 0.673610 -12.408259 1.350595 17.309757 0.000000 0.000000 0.000000 2.090538 -18.851937 1.451843 3.808113 -31.399479 5.476287 10.730683 6.086561 -3.948571 4.866774 4.089760 -2.762282 0.000000 0.000000 0.000000 -0.639140 5.407212 -2.144367 -2.146261 2.764418 -0.383412 0.000000 0.000000 0.000000 -2.878790 3.740684 -3.238259 -3.844011 -2.584391 -9.566835 -29.833884 11.750856 -47.168231 -10.654177 -28.355793 -7.762963 0.000000 0.000000 0.000000 -3.185082 5.261145 -1.798103 -4.686782 19.931177 -0.211179 -23.607726 -16.086270 48.583983 -12.254406 30.874350 14.470934 0.000000 0.000000 0.000000 
-2.916511 78.025131 3.262699 0.000000 0.000000 0.000000 -9.009155 -16.373983 1.832180 -57.691090 2.514548 21.574715 48.849308 -10.757623 -1.683585 -3.853909 -10.312655 -15.825765 0.000000 0.000000 0.000000 8.229901 -35.555438 -3.735616 -23.323196 -13.779826 -24.841091 46.428040 6.967955 0.613400 -11.908824 1.859597 17.558828 0.000000 0.000000 0.000000 -0.404757 -18.780981 -0.276070 6.280399 -30.549852 6.088085 10.689156 5.731915 -4.615553 5.078838 4.192338 -2.995195 0.000000 0.000000 0.000000 -0.729940 5.467555 -2.530139 -2.231211 2.964511 -0.339236 0.000000 0.000000 0.000000 -3.260933 3.616110 -3.382648 -3.548535 -3.126391 -8.335445 -32.170847 12.182557 -46.615727 -10.339389 -28.117486 -7.470641 0.000000 0.000000 0.000000 -3.870528 5.696984 -2.530722 -4.185654 20.231727 -1.974725 -20.940834 -19.118953 47.763844 -12.821851 29.421036 15.473903 0.000000 0.000000 0.000000 
-3.023689 78.684830 1.624193 0.000000 0.000000 0.000000 -9.438499 -17.820986 0.604647 -58.056963 2.652246 20.558695 49.780451 -10.803776 -1.772367 -2.766365 -10.441438 -16.189060 0.000000 0.000000 0.000000 8.666164 -35.911246 -3.363239 -22.920233 -13.935583 -24.606515 46.074933 7.446264 0.372784 -12.117284 2.423547 17.473562 0.000000 0.000000 0.000000 1.650328 -19.283460 1.405363 3.960814 -31.516426 5.509274 11.713500 5.551601 -5.060344 4.982400 4.259287 -2.941131 0.000000 0.000000 0.000000 -0.087527 5.699216 -2.600503 -2.336383 3.126311 -0.520138 0.000000 0.000000 0.000000 -3.523506 4.149115 -2.830462 -3.957915 -4.257066 -6.643220 -32.366320 12.548799 -47.453467 -10.227124 -25.648137 -7.879554 0.000000 0.000000 0.000000 -4.258975 6.136922 -2.749794 -3.820886 20.918636 -3.213056 -17.470034 -17.536649 50.573890 -12.453494 27.490625 15.609395 0.000000 0.000000 0.000000 
-3.121458 78.824966 2.073967 0.000000 0.000000 0.000000 -9.761478 -17.909176 0.276626 -58.565525 2.711659 20.442184 49.738284 -10.348490 -1.662751 -2.512037 -10.088817 -15.759521 0.000000 0.000000 0.000000 8.494921 -37.205748 -3.351408 -23.378844 -14.139795 -24.727348 46.030694 7.806531 0.868030 -12.282458 2.413618 18.371375 0.000000 0.000000 0.000000 0.678110 -20.066143 0.503611 6.615344 -33.699436 4.173813 10.683592 5.162351 -4.410087 5.605812 4.389089 -3.407026 0.000000 0.000000 0.000000 0.107408 5.845299 -2.964229 -2.094983 3.434001 -0.708003 0.000000 0.000000 0.000000 -3.231945 3.968246 -2.871601 -4.084852 -3.876926 -4.511887 -34.029908 11.787660 -47.078394 -10.739894 -27.237707 -8.212247 0.000000 0.000000 0.000000 -4.097147 6.409537 -3.034566 -4.025336 19.644215 -2.985613 -15.213989 -21.365831 51.532838 -12.475954 28.296181 17.127454 0.000000 0.000000 0.000000 
-3.080870 79.085373 1.202120 0.000000 0.000000 0.000000 -9.357577 -18.839123 0.732963 -58.143502 2.374634 20.754115 49.316271 -10.199626 -2.287175 -2.695640 -9.620248 -16.609557 0.000000 0.000000 0.000000 7.931773 -38.065754 -3.884552 -24.125277 -14.139975 -25.232735 47.230891 8.086731 0.529848 -11.496227 2.944831 18.176959 0.000000 0.000000 0.000000 2.279822 -20.303082 0.709684 4.317433 -35.743466 4.862110 11.773416 5.173593 -4.957603 5.815799 4.124435 -3.337417 0.000000 0.000000 0.000000 0.383293 5.663696 -3.343021 -2.216567 3.491506 -0.826256 0.000000 0.000000 0.000000 -3.345146 3.814031 -3.037087 -4.010487 -3.785870 -4.096572 -31.072064 10.590237 -47.174846 -9.321687 -26.239078 -8.217815 0.000000 0.000000 0.000000 -4.434477 6.241849 -2.988968 -3.561172 19.122409 -3.506026 -13.991842 -22.653569 49.794873 -12.398916 29.488771 17.346280 0.000000 0.000000 0.000000 
-2.457547 79.287003 -0.201010 0.000000 0.000000 0.000000 -8.433325 -20.177309 1.691775 -57.680517 1.875335 21.648322 48.160483 -10.125060 -2.586031 -3.456800 -9.322558 -16.962478 0.000000 0.000000 0.000000 7.830193 -37.693919 -4.006206 -24.295121 -13.914192 -25.224495 47.143793 8.066030 0.525691 -11.140885 3.073681 18.133418 0.000000 0.000000 0.000000 0.285165 -24.866507 1.068841 7.129367 -28.025526 3.611825 10.167461 4.905175 -4.579376 5.956109 4.313730 -3.423776 0.000000 0.000000 0.000000 -0.045596 5.901262 -3.741125 -1.977458 3.594471 -1.042387 0.000000 0.000000 0.000000 -3.752340 3.913555 -3.377908 -3.943853 -4.447241 -3.678164 -30.468443 12.997955 -45.879392 -8.424063 -23.199574 -7.790502 0.000000 0.000000 0.000000 -4.571266 6.274713 -2.942815 -3.664203 18.590660 -3.415762 -14.680814 -22.033770 50.039431 -10.644857 26.852805 17.158858 0.000000 0.000000 0.000000 
-2.734267 79.655960 -0.303602 0.000000 0.000000 0.000000 -7.646771 -22.714955 2.539108 -57.198999 1.099583 22.286521 47.514583 -9.672904 -2.682304 -3.962021 -8.735774 -16.821918 0.000000 0.000000 0.000000 8.361886 -38.050533 -2.798829 -24.325034 -14.174832 -24.259123 49.146879 8.655198 0.697373 -9.607365 3.727668 18.990588 0.000000 0.000000 0.000000 1.596122 -25.193421 2.025662 5.087710 -28.626998 2.923821 8.790255 5.349459 -4.530114 5.664016 3.749722 -3.493957 0.000000 0.000000 0.000000 -0.063989 5.932656 -4.016152 -2.041446 3.636820 -1.212470 0.000000 0.000000 0.000000 -3.471412 4.077336 -3.568552 -3.530181 -5.157828 -3.100907 -28.388049 13.821674 -45.228755 -7.565377 -22.151772 -7.945693 0.000000 0.000000 0.000000 -4.660912 6.341778 -3.058332 -3.227815 17.016102 -3.694212 -12.905889 -21.973436 50.762540 -10.301370 27.394654 17.957809 0.000000 0.000000 0.000000 
-3.332510 79.368584 -0.716187 0.000000 0.000000 0.000000 -6.073130 -23.488512 4.511112 -55.973885 0.431821 23.775994 48.052245 -9.236508 -2.842961 -3.719776 -8.122518 -16.917955 0.000000 0.000000 0.000000 8.651446 -39.470731 -2.597080 -24.213572 -14.634978 -24.496053 50.171592 9.299332 0.577886 -8.699184 4.595035 19.382673 0.000000 0.000000 0.000000 1.820511 -28.345498 2.269456 3.228965 -26.157570 2.661594 10.097956 4.978206 -4.299275 5.719328 3.707235 -3.862532 0.000000 0.000000 0.000000 0.630502 5.824685 -4.624130 -1.991048 3.535204 -1.333099 0.000000 0.000000 0.000000 -3.101342 3.684422 -3.995645 -3.812951 -4.953779 -2.521570 -26.411845 15.119623 -45.188081 -7.403621 -22.198822 -7.838772 0.000000 0.000000 0.000000 -3.914323 6.482407 -3.469302 -3.158955 16.941308 -3.773721 -14.553835 -22.261349 50.348080 -12.859541 30.345550 20.055908 0.000000 0.000000 0.000000 
-2.973071 79.732269 -0.970270 0.000000 0.000000 0.000000 -5.364007 -24.224045 4.441444 -55.632953 0.542846 23.786506 47.246614 -8.640675 -3.279480 -4.684826 -7.047241 -17.125986 0.000000 0.000000 0.000000 8.837819 -39.535075 -1.877216 -24.520977 -14.659708 -24.077940 50.963009 10.312321 0.400072 -8.363868 5.636587 19.971523 0.000000 0.000000 0.000000 2.904080 -29.858360 3.638779 2.650438 -26.786470 3.196066 11.003792 4.363375 -4.704477 6.480297 3.422712 -3.972534 0.000000 0.000000 0.000000 0.772135 5.874620 -5.055003 -1.918277 3.680257 -1.553026 0.000000 0.000000 0.000000 -2.611031 3.696655 -4.358175 -3.180624 -4.946096 -2.668206 -24.929453 14.089869 -45.474901 -6.440609 -21.754680 -8.031907 0.000000 0.000000 0.000000 -3.777440 6.233251 -3.616531 -2.346604 16.117232 -4.651863 -15.121441 -21.205856 49.893934 -13.453545 32.585975 20.713368 0.000000 0.000000 0.000000 
-2.403705 80.122803 -2.072971 0.000000 0.000000 0.000000 -4.931534 -25.125184 4.197405 -55.264690 0.578875 23.527046 46.830772 -7.826881 -3.875365 -5.071218 -5.818723 -17.465210 0.000000 0.000000 0.000000 8.585397 -41.636574 -2.467061 -25.126350 -14.950849 -25.094484 50.922267 11.238372 0.187015 -8.368826 6.640905 20.366685 0.000000 0.000000 0.000000 3.781054 -31.270908 4.628094 4.069053 -27.069942 4.057338 11.414821 4.151774 -4.717487 6.771529 3.273043 -4.103212 0.000000 0.000000 0.000000 0.509796 5.848557 -5.310057 -2.104442 3.903499 -1.716821 0.000000 0.000000 0.000000 -2.579298 3.538950 -4.515191 -3.021891 -3.969840 -3.032959 -23.840664 15.345511 -44.779396 -6.270436 -20.231778 -8.082654 0.000000 0.000000 0.000000 -3.593082 6.281040 -3.495397 -2.247545 16.039425 -4.855677 -15.749521 -21.204244 49.603610 -14.787658 36.220951 21.893183 0.000000 0.000000 0.000000 
-1.922997 80.689690 -2.209480 0.000000 0.000000 0.000000 -4.947598 -26.338304 3.765317 -55.601920 0.538305 23.263578 45.452587 -7.102861 -4.515508 -6.382954 -4.593452 -17.910003 0.000000 0.000000 0.000000 8.039935 -43.449582 -2.818776 -26.195230 -15.164676 -25.855478 50.807571 11.910553 -0.098149 -8.454860 7.450435 20.445017 0.000000 0.000000 0.000000 3.710131 -32.220311 4.766270 3.634531 -29.180976 3.629064 12.080349 3.706249 -5.197789 7.192793 3.067699 -4.325717 0.000000 0.000000 0.000000 0.802348 5.837411 -5.682208 -1.998033 4.167545 -1.835276 0.000000 0.000000 0.000000 -1.867547 3.353819 -4.782260 -2.586077 -3.193356 -3.244990 -22.556990 15.247159 -44.940322 -5.325531 -19.907525 -7.889817 0.000000 0.000000 0.000000 -3.213455 6.047956 -3.639899 -1.591874 15.089346 -4.940344 -14.260083 -19.466048 49.531207 -16.282980 41.321852 23.480561 0.000000 0.000000 0.000000 
